{"title":"Sin City A Dame To Kill For (2014) 720p BLuRay x264 [Eng DD 5.1]","uid":11476733,"size":903584248,"categoryP":"video","categoryS":"hd___movies","magnet":"?xt=urn:btih:32be3ac919531292e916dd88472a8094a52896be&amp;dn=Sin+City+A+Dame+To+Kill+For+%282014%29+720p+BLuRay+x264+%5BEng+DD+5.1%5D&amp;tr=udp%3A%2F%2Ftracker.openbittorrent.com%3A80&amp;tr=udp%3A%2F%2Fopen.demonii.com%3A1337&amp;tr=udp%3A%2F%2Ftracker.coppersurfer.tk%3A6969&amp;tr=udp%3A%2F%2Fexodus.desync.com%3A6969","seeders":2,"leechers":2,"uploader":"Xdesiars","files":5,"time":1416159804,"description":"Format                                   : Matroska\nFormat version                           : Version 2\nFile size                                : 854 MiB\nDuration                                 : 1h 42mn\nOverall bit rate                         : 1 170 Kbps\nMovie name                               : A Sin City A Dame To Kill For (2014) by XdesiArsenal [ExD-XMR]\nEncoded date                             : UTC 2014-11-16 15:41:46\nWriting application                      : mkvmerge v5.0.1 ('Es ist Sommer') built on Nov 23 2011 20:48:57\nWriting library                          : libebml v1.2.2 + libmatroska v1.3.0\n\nVideo\nID                                       : 1\nFormat                                   : AVC\nFormat/Info                              : Advanced Video Codec\nFormat profile                           : &lt;a class=&quot;__cf_email__&quot; href=&quot;/cdn-cgi/l/email-protection&quot; data-cfemail=&quot;a2efc3cbcce2ee918c93&quot;&gt;[email&amp;#160;protected]&lt;/a&gt;&lt;script cf-hash='f9e31' type=&quot;text/javascript&quot;&gt;\n/* &lt;![CDATA[ */!function(){try{var t=&quot;currentScript&quot;in document?document.currentScript:function(){for(var t=document.getElementsByTagName(&quot;script&quot;),e=t.length;e--;)if(t[e].getAttribute(&quot;cf-hash&quot;))return t[e]}();if(t&amp;&amp;t.previousSibling){var e,r,n,i,c=t.previousSibling,a=c.getAttribute(&quot;data-cfemail&quot;);if(a){for(e=&quot;&quot;,r=parseInt(a.substr(0,2),16),n=2;a.length-n;n+=2)i=parseInt(a.substr(n,2),16)^r,e+=String.fromCharCode(i);e=document.createTextNode(e),c.parentNode.replaceChild(e,c)}}}catch(u){}}();/* ]]&gt; */&lt;/script&gt;\nFormat settings, CABAC                   : Yes\nFormat settings, ReFrames                : 4 frames\nMuxing mode                              : Header stripping\nCodec ID                                 : V_MPEG4/ISO/AVC\nDuration                                 : 1h 42mn\nBit rate                                 : 954 Kbps\nWidth                                    : 1 280 pixels\nHeight                                   : 720 pixels\nDisplay aspect ratio                     : 1.85:1\nFrame rate mode                          : Constant\nFrame rate                               : 23.976 fps\nColor space                              : YUV\nChroma subsampling                       : 4:2:0\nBit depth                                : 8 bits\nScan type                                : Progressive\nBits/(Pixel*Frame)                       : 0.043\nStream size                              : 697 MiB (82%)\nTitle                                    : A Sin City A Dame To Kill For (2014) by XdesiArsenal [ExD-XMR]\nWriting library                          : x264 core 112\nLanguage                                 : English\nDefault                                  : Yes\nForced                                   : No\nColor primaries                          : BT.709\nTransfer characteristics                 : BT.709\nMatrix coefficients                      : BT.709\n\nAudio\nID                                       : 2\nFormat                                   : AC-3\nFormat/Info                              : Audio Coding 3\nMode extension                           : CM (complete main)\nFormat settings, Endianness              : Big\nMuxing mode                              : Header stripping\nCodec ID                                 : A_AC3\nDuration                                 : 1h 42mn\nBit rate mode                            : Constant\nBit rate                                 : 192 Kbps\nChannel(s)                               : 6 channels\nChannel positions                        : Front: L C R, Side: L R, LFE\nSampling rate                            : 48.0 KHz\nBit depth                                : 16 bits\nCompression mode                         : Lossy\nStream size                              : 140 MiB (16%)\nTitle                                    : XdesiArsenal DD 5.1\nLanguage                                 : English\nDefault                                  : Yes\nForced                                   : No\n\nMenu\n00:00:00.000                             : en:Chapter 1\n00:07:05.258                             : en:Chapter 2\n00:14:23.571                             : en:Chapter 3\n00:20:40.406                             : en:Chapter 4\n00:26:19.119                             : en:Chapter 5\n00:31:27.093                             : en:Chapter 6\n00:38:13.791                             : en:Chapter 7\n00:45:24.722                             : en:Chapter 8\n00:50:49.880                             : en:Chapter 9\n00:57:46.671                             : en:Chapter 10\n01:07:05.980                             : en:Chapter 11\n01:12:30.805                             : en:Chapter 12\n01:16:48.520                             : en:Chapter 13\n01:23:19.870                             : en:Chapter 14\n01:28:59.084                             : en:Chapter 15\n01:35:22.967                             : en:Chapter 16","torrent":{"xt":"urn:btih:32be3ac919531292e916dd88472a8094a52896be","amp;dn":"Sin+City+A+Dame+To+Kill+For+%282014%29+720p+BLuRay+x264+%5BEng+DD+5.1%5D","amp;tr":["udp%3A%2F%2Ftracker.openbittorrent.com%3A80","udp%3A%2F%2Fopen.demonii.com%3A1337","udp%3A%2F%2Ftracker.coppersurfer.tk%3A6969","udp%3A%2F%2Fexodus.desync.com%3A6969"],"infoHash":"32be3ac919531292e916dd88472a8094a52896be","infoHashBuffer":{"type":"Buffer","data":[50,190,58,201,25,83,18,146,233,22,221,136,71,42,128,148,165,40,150,190]},"announce":[],"urlList":[]}}